<?xml version="1.0" encoding="UTF-8"?>
<svg id="Réteg_2" data-name="Réteg 2" xmlns="http://www.w3.org/2000/svg" width="32" height="32" viewBox="0 0 129 129">
  <defs>
    <style>
      .cls-1 {
        fill: #6c7f93;
      }

      .cls-2 {
        fill: #fff;
        stroke: #fff;
      }

      .cls-2, .cls-3 {
        stroke-miterlimit: 10;
      }

      .cls-3 {
        fill: #1a2e48;
        stroke: #1a2e48;
      }

      .cls-4 {
        fill: #e9412a;
      }
    </style>
  </defs>
  <g id="Réteg_1" data-name="Réteg 1">
    <rect class="cls-3" x=".5" y=".5" width="128" height="128" rx="23.16" ry="23.16"/>
    <g>
      <path class="cls-4" d="M26.18,67.29c.05.09.1.17.15.25v-9.02l1.53,10.12s0,0,0,0l.54-7.39.53,7.36c.26-.08.43-.21.43-.34l.21-12.61c.03-1.8-1.78-2.47-2.16-4.18-1.48.68-3.4,1.17-4.76.12.37,1.18-1.43,1.76-1.61,2.96-.62,4.25-.22,9.31-.19,13.73.02.19.19.31.43.38l.71-8.56.71,8.53c.25-.06.47-.14.62-.24l.82-11.18.68,10.58c.08.4.18.72.32.84v-9.39l.87,8.3c.05-.09.11-.18.18-.26Z"/>
      <polygon class="cls-4" points="86.59 62.89 76.38 66.39 92.72 82.73 73.33 102.12 80.18 108.97 106.42 82.73 86.59 62.89"/>
      <polygon class="cls-1" points="42.34 62.89 52.54 66.39 36.21 82.73 55.6 102.12 48.75 108.97 22.51 82.73 42.34 62.89"/>
      <path class="cls-2" d="M89.6,57.43l-21.82,7.37c-1.02.35-2.13.36-3.16.04l-26.53-8.31c-.58-.18-1.16.25-1.16.85v5.22c0,.39.25.74.63.85l27.07,8.48c1.03.32,2.13.31,3.16-.04l22.39-7.56c.36-.12.61-.46.61-.85v-5.21c0-.61-.6-1.04-1.18-.85Z"/>
      <path class="cls-2" d="M115.96,38.17l-48.2-17.43c-2.5-.9-3.97-.96-6.44-.03L13.3,38.84c-.94.35-1.55.82-1.71,1.47-.26,1.03.12,1.89,1.13,2.28l8.39,3.27c.06.02.12.06.16.11,1.18,1.36,1.03,3.85,1.36,5.47.02.1.08.19.16.25,1.27.86,2.96.5,4.35-.09.17-.07.25-.25.22-.43-.19-1.23.12-2.5.46-3.81.06-.22.29-.34.5-.27l2.14.73c.09.03.18.03.27,0l27.98-10.7c.46-.17.75.48.32.71l-22.11,11.52c-.3.16-.27.6.05.71l27.79,9.56c.39.13.82.13,1.21-.01l1.37-.51s.02,0,.03,0c.19-.05.38-.11.58-.18l17.4-5.95,30.54-10.74c.98-.35,1.61-1.25,1.6-2.02,0-.75-.51-1.68-1.53-2.05Z"/>
    </g>
  </g>
</svg>