<?xml version="1.0" encoding="UTF-8"?>
<svg id="Réteg_2" data-name="Réteg 2" xmlns="http://www.w3.org/2000/svg" height="100" viewBox="0 0 746.57 176.91">
  <defs>
    <style>
      .cls-1, .cls-2 {
        fill: #1a2e48;
      }

      .cls-3 {
        fill: #6c7f93;
      }

      .cls-2 {
        stroke: #1a2e48;
        stroke-miterlimit: 10;
      }

      .cls-4 {
        fill: #e9412a;
      }
    </style>
  </defs>
  <g id="Réteg_1" data-name="Réteg 1">
    <g>
      <path class="cls-4" d="M496.77,130.94c-12.32,3.36-24.82,1.49-36.65-2.72l.49-14.14c8.57,4.41,32.23,11,34.86-1.49,3.23-15.32-36.14-8.18-34.78-35.86.46-9.33,6.54-16.91,16.6-19.39,10.56-2.6,21.9-1.98,32.39,1.43.01,4.93-.43,9.31-.99,14.01-7.39-3.72-28.41-7.75-30.32,2.28-.61,3.21,1.22,6.42,4.57,7.86l18.02,7.74c7.85,3.37,12,9.99,12.07,18.59.09,10.18-5.66,18.8-16.26,21.69Z"/>
      <path class="cls-1" d="M313.79,154.75c-4.77.41-9.34.19-14.8-.01l-.12-72.57c4.67-.59,9.11-.15,13.82-.23.65,1.38.35,2.65,1.91,4.17,9.12-7.09,23.28-7.56,29.79,2.95,5.6,9.04,5.62,21.25,1.48,30.81-5.45,12.57-19.96,15.92-31.58,9.19l-.49,25.71ZM330.81,95.96c-1.89-3.57-5.97-4.49-9.67-3.6-2.64.64-6.7,2.95-6.95,6.91-.37,5.81-1.08,12.1.39,17.73,1.05,3.99,6.6,4.85,10.03,4.25,9.56-1.68,10.13-17.89,6.21-25.29Z"/>
      <path class="cls-4" d="M597.86,130.89l-.21-29.71c-.02-2.76-.66-5.85-3.62-7.23-4.52-2.1-13.31.76-13.44,6.38l-.72,30.5c-4.71.48-9.45.35-14.93,0V53.88c5.02-.47,9.84-.15,15.07.02l.83,33.74c6.89-5.91,14.88-8.17,22.86-5.4,5.42,1.88,9.03,7.18,9.05,13.09l.15,35.43c-4.99.53-9.42.45-15.04.14Z"/>
      <path class="cls-4" d="M670.56,106.84c0,14.53-11.78,26.31-26.31,26.31s-26.31-11.78-26.31-26.31,11.78-26.31,26.31-26.31,26.31,11.78,26.31,26.31ZM652.67,96.9c-1.53-3.57-5.41-4.81-8.79-4.79-3.12.01-6.93,1.61-8.35,5.22-2.32,5.91-2.21,12.85,0,18.81,1.61,4.34,6.1,5.82,10.27,5.36,10.1-1.11,10.16-16.92,6.87-24.6Z"/>
      <path class="cls-4" d="M725.92,106.85c0,14.5-11.75,26.25-26.25,26.25s-26.25-11.75-26.25-26.25,11.75-26.25,26.25-26.25,26.25,11.75,26.25,26.25ZM708.27,116.51c2.59-6.41,2.41-13.92-.28-19.88-1.79-3.97-6.11-4.95-10.08-4.47-3.23.39-6.6,2.82-7.68,6.89-1.86,7.06-1.79,21.29,7.69,22.49,4.08.52,8.51-.49,10.35-5.03Z"/>
      <path class="cls-1" d="M431.98,93.64c-4.94-2.13-12.51,1.09-12.6,6.66l-.49,30.69c-4.86.41-9.51.29-14.68-.07l-.05-48.71c4.69-.3,8.74-.51,13.19.07,1.55.66.44,4.04,1.49,6.08,7.02-7.36,17.94-10.04,26.62-4.15,4.02,2.73,5.82,8.16,5.83,13.03l.08,33.88c-5.33.41-9.78.29-15.23.02l-.32-30.95c-.03-2.53-.86-5.25-3.84-6.54Z"/>
      <path class="cls-1" d="M377.89,121.52c6.83.87,12.63-.91,18.52-3.72.92,3.59.74,7.01.22,10.99-10.11,4.4-21.69,5.46-31.99.89-9.31-4.13-12.98-13.69-13.02-23.4-.07-14.98,10.61-26.14,25.69-25.34,6.81.36,13.81,2.53,17.61,8.62s4.6,13.21,4.01,19.99l-31.75.19c.19,6.5,4.28,10.97,10.72,11.79ZM384.58,101.19c.14-4-.53-6.66-2.68-8.57-2.89-2.56-7.24-2.49-10.36-.68-2.91,1.69-4.94,5.34-4.73,9.23,5.96.42,11.37.53,17.78.02Z"/>
      <path class="cls-4" d="M536.73,117.19c5.67,6.08,14.1,4.19,20.84.82,1.21,3.64,1.17,7.53.93,11.58-7.73,3.09-16.55,3.75-24.64,1.85-10.96-2.57-16.47-11.49-16.99-22.24-.57-11.76,4.74-22.04,16.23-26.14,7.95-2.84,16.81-2.35,24.98.5.01,4.06-.19,7.9-.66,12.1-6.88-2.75-14.58-4.82-20.28.52-5.23,4.9-5.6,15.44-.4,21.02Z"/>
      <rect class="cls-4" x="731.23" y="53.93" width="15.31" height="77.28"/>
      <path class="cls-1" d="M291.7,108.79c-6.75,24.74-36.28,28.46-54.23,20.03-8.81-4.14-15.05-11.5-17.5-21-5.36-20.75.85-44.62,23.57-51.1,19.52-5.56,42.29.51,48.14,21.95,2.69,9.86,2.7,20.32.03,30.12ZM271.67,112.85c6.69-11.31,6.65-26.06.43-37.17-3.87-6.91-11.46-9.17-18.97-8.3-18.13,2.11-21.8,28.71-13.32,44.42,3.13,5.81,9.55,8.3,15.11,8.56,6.22.29,13.04-1.25,16.75-7.52Z"/>
    </g>
    <g>
      <path class="cls-4" d="M29.61,94.24c.09.18.2.33.3.49v-17.9l3.03,20.07s0,0,0,0l1.06-14.65,1.06,14.6c.52-.16.86-.42.86-.68l.41-25.01c.06-3.57-3.53-4.9-4.28-8.28-2.94,1.34-6.74,2.31-9.45.23.74,2.34-2.84,3.49-3.19,5.88-1.23,8.43-.43,18.47-.37,27.23.04.37.37.61.84.75l1.41-16.97,1.4,16.92c.49-.12.92-.28,1.22-.49l1.63-22.17,1.35,20.99c.16.79.37,1.42.63,1.67v-18.63l1.72,16.47c.1-.18.21-.35.35-.52Z"/>
      <polygon class="cls-4" points="149.43 85.52 129.19 92.46 161.59 124.86 123.13 163.32 136.71 176.91 188.77 124.86 149.43 85.52"/>
      <polygon class="cls-3" points="61.66 85.52 81.9 92.46 49.5 124.86 87.97 163.32 74.38 176.91 22.33 124.86 61.66 85.52"/>
      <path class="cls-2" d="M155.4,74.68l-43.28,14.62c-2.03.68-4.22.71-6.26.07l-52.63-16.49c-1.14-.36-2.31.5-2.31,1.69v10.36c0,.78.5,1.46,1.24,1.69l53.69,16.82c2.04.64,4.23.62,6.26-.07l44.41-15c.72-.24,1.21-.92,1.21-1.68v-10.33c0-1.21-1.19-2.07-2.34-1.68Z"/>
      <path class="cls-2" d="M207.7,36.48L112.08,1.9c-4.96-1.79-7.88-1.91-12.78-.06L4.06,37.81c-1.86.7-3.08,1.62-3.4,2.91-.51,2.05.23,3.75,2.24,4.53l16.63,6.49c.12.05.23.12.32.22,2.34,2.69,2.04,7.63,2.7,10.85.04.2.16.37.32.49,2.52,1.72,5.88.99,8.63-.18.33-.14.5-.49.45-.85-.37-2.44.23-4.96.9-7.55.11-.43.57-.68,1-.54l4.24,1.46c.17.06.36.06.53,0l55.51-21.22c.91-.35,1.49.96.63,1.41l-43.85,22.85c-.6.31-.54,1.19.11,1.41l55.12,18.96c.78.27,1.62.26,2.4-.03l2.72-1.01s.04-.01.06-.02c.38-.1.76-.22,1.14-.35l34.52-11.79,60.59-21.31c1.95-.68,3.19-2.48,3.18-4-.01-1.49-1-3.33-3.04-4.06Z"/>
    </g>
  </g>
</svg>