<?xml version="1.0" encoding="UTF-8"?>
<svg id="Réteg_2" data-name="Réteg 2" xmlns="http://www.w3.org/2000/svg" viewBox="0 0 211.23 176.91">
  <defs>
    <style>
      .cls-1 {
        fill: #6c7f93;
      }

      .cls-2 {
        fill: #1a2e48;
        stroke: #1a2e48;
        stroke-miterlimit: 10;
      }

      .cls-3 {
        fill: #e9412a;
      }
    </style>
  </defs>
  <g id="Réteg_1" data-name="Réteg 1">
    <g>
      <path class="cls-3" d="M29.61,94.24c.09.18.2.33.3.49v-17.9l3.03,20.07s0,0,0,0l1.06-14.65,1.06,14.6c.52-.16.86-.42.86-.68l.41-25.01c.06-3.57-3.53-4.9-4.28-8.28-2.94,1.34-6.74,2.31-9.45.23.74,2.34-2.84,3.49-3.19,5.88-1.23,8.43-.43,18.47-.37,27.23.04.37.37.61.84.75l1.41-16.97,1.4,16.92c.49-.12.92-.28,1.22-.49l1.63-22.17,1.35,20.99c.16.79.37,1.42.63,1.67v-18.63l1.72,16.47c.1-.18.21-.35.35-.52Z"/>
      <polygon class="cls-3" points="149.43 85.52 129.19 92.46 161.59 124.86 123.13 163.32 136.71 176.91 188.77 124.86 149.43 85.52"/>
      <polygon class="cls-1" points="61.66 85.52 81.9 92.46 49.5 124.86 87.97 163.32 74.38 176.91 22.33 124.86 61.66 85.52"/>
      <path class="cls-2" d="M155.4,74.68l-43.28,14.62c-2.03.68-4.22.71-6.26.07l-52.63-16.49c-1.14-.36-2.31.5-2.31,1.69v10.36c0,.78.5,1.46,1.24,1.69l53.69,16.82c2.04.64,4.23.62,6.26-.07l44.41-15c.72-.24,1.21-.92,1.21-1.68v-10.33c0-1.21-1.19-2.07-2.34-1.68Z"/>
      <path class="cls-2" d="M207.7,36.48L112.08,1.9c-4.96-1.79-7.88-1.91-12.78-.06L4.06,37.81c-1.86.7-3.08,1.62-3.4,2.91-.51,2.05.23,3.75,2.24,4.53l16.63,6.49c.12.05.23.12.32.22,2.34,2.69,2.04,7.63,2.7,10.85.04.2.16.37.32.49,2.52,1.72,5.88.99,8.63-.18.33-.14.5-.49.45-.85-.37-2.44.23-4.96.9-7.55.11-.43.57-.68,1-.54l4.24,1.46c.17.06.36.06.53,0l55.51-21.22c.91-.35,1.49.96.63,1.41l-43.85,22.85c-.6.31-.54,1.19.11,1.41l55.12,18.96c.78.27,1.62.26,2.4-.03l2.72-1.01s.04-.01.06-.02c.38-.1.76-.22,1.14-.35l34.52-11.79,60.59-21.31c1.95-.68,3.19-2.48,3.18-4-.01-1.49-1-3.33-3.04-4.06Z"/>
    </g>
  </g>
</svg>